# xmcd CD database file
#
# Track frame offsets:
#	150
#	20547
#	40387
#	63931
#	85945
#	107071
#	128320
#	161635
#	181643
#	203957
#	223015
#	255359
#
# Disc length: 3588 seconds
#
# Revision: 0
# Processed by: cddbd v1.5.2PL0 Copyright (c) Steve Scherf et al.
# Submitted via: CDex 1.60beta1-cs1
#
DISCID=980e020c
DTITLE=Dixielanders - Some of these days
DYEAR=2006
DGENRE=Jazz
TTITLE0=Limehouse blues
TTITLE1=Some of these days
TTITLE2=Baby won´t you please come home
TTITLE3=I´m crazy ´bout my baby
TTITLE4=Fidgety feet
TTITLE5=Buddy Bolden blues
TTITLE6=Ain´t misbehavin
TTITLE7=Everybody loves my baby
TTITLE8=Honeysuckle rose
TTITLE9=Willie the weeper
TTITLE10=Someday you´ll be sorry
TTITLE11=Who´s sorry now
EXTD=YEAR: 2006
EXTT0=
EXTT1=
EXTT2=
EXTT3=
EXTT4=
EXTT5=
EXTT6=
EXTT7=
EXTT8=
EXTT9=
EXTT10=
EXTT11=
PLAYORDER=
